<svg xmlns="http://www.w3.org/2000/svg" fill="none" height="35" viewBox="0 0 35 35" width="35"><path d="m6.75393 13.8366c.08161-1.5355 1.01108-3.2015 2.76178-4.95223.00262-.00262.00366-.00681.00629-.01048.00366-.00262.00786-.00367.011-.00681 1.7507-1.75069 3.4162-2.67965 4.9512-2.76177 1.1799-.06259 2.2509.38556 3.1836 1.33413 1.0222 1.03998 4.7644 4.76646 5.2142 5.21526.4488.4498 4.1753 4.192 5.2158 5.2147.9479.9322 1.3967 2.0037 1.3336 3.1831-.082 1.5351-1.0105 3.201-2.7612 4.9517-.0032.0032-.0042.0074-.0074.0105-.0031.0032-.0073.0042-.0099.0068-1.7507 1.7507-3.4172 2.6798-4.9523 2.7618-1.1793.0631-2.2504-.3861-3.1826-1.334-1.0232-1.0401-4.765-4.7671-5.2153-5.2153-.4482-.4503-4.17518-4.1921-5.21471-5.2147-.94842-.9327-1.39717-2.0033-1.33406-3.1827z" stroke="#004f7b" stroke-linecap="round" stroke-linejoin="round" stroke-miterlimit="10"></path><path d="m11.2091 5.44815.6629 1.1978m3.1292-2.33106-.185 1.44321m-8.90703 4.99 1.1978.6629m-2.33113 3.1292 1.56869-.201m2.87826-5.57271-.96009-.9601m16.5238 21.81901-.663-1.1978m-3.1293 2.331.2184-1.7036m8.8738-4.7296-1.1978-.6629m2.331-3.1292-1.4432.185m-3.0042 5.5883.9606.9606m2.3233-10.2111-1.1567 1.1568m-9.978 9.978-1.2162 1.2162m10.0338-14.6681-1.0769 1.0769m-10.1976 10.1977-1.0764 1.0763m10.0332-14.6686-1.0769 1.0769m-10.1977 10.1976-1.0763 1.0764m10.0337-14.6681-1.0769 1.0769m-10.1977 10.1976-1.0763 1.0764m10.0331-14.66868-1.0769 1.07689m-10.19762 10.19769-1.07636 1.0763m10.03318-14.66861-1.2139 1.21389m-9.90882 9.90882-1.22827 1.2283" stroke="#004f7b" stroke-linecap="round" stroke-linejoin="round" stroke-miterlimit="10"></path><g fill="#004f7b"><path d="m14.3489 12.2863c-.4133-.4133-.4134-1.0832-.0001-1.4966.4133-.4133 1.0833-.4132 1.4966.0001.4134.4134.4134 1.0833.0001 1.4966s-1.0832.4133-1.4966-.0001z"></path><path d="m14.8641 17.9201c-.4134-.4134-.4139-1.0837-.0006-1.4971.4134-.4133 1.0842-.4132 1.4975.0001.4129.4129.413 1.0837-.0003 1.4971-.4134.4133-1.0837.4129-1.4966-.0001z"></path><path d="m20.1609 18.0978c-.4133-.4134-.4129-1.0838 0-1.4966.4133-.4133 1.0837-.4138 1.497-.0004.4134.4133.4129 1.0837-.0004 1.497-.4128.413-1.0831.4134-1.4966 0z"></path><path d="m20.4675 23.7182c-.4406-.4405-.4406-1.1541-.0001-1.5946.4401-.4401 1.1541-.4405 1.5946.0001.4406.4405.4402 1.1545.0001 1.5946-.4405.4405-1.1541.4405-1.5946-.0001z"></path></g></svg>