<svg xmlns="http://www.w3.org/2000/svg" fill="none" height="36" viewBox="0 0 35 36" width="35"><g stroke="#004f7b" stroke-linecap="round" stroke-linejoin="round" stroke-miterlimit="10"><path d="m20.0361 12.127c0-2.75138 2.2305-4.98198 4.9819-4.98198 2.7515.0001 4.982 2.2306 4.982 4.98198v5.7675h-9.9639z"></path><path d="m25.018 28.644c-2.7514 0-4.9819-2.2305-4.9819-4.982v-5.7675h9.9639v5.7675c-.0001 2.7515-2.2306 4.982-4.982 4.982z"></path><path d="m10.9787 28.8548c-3.30169 0-5.97827-2.6766-5.97827-5.9783s2.67658-5.9783 5.97827-5.9783c3.3018 0 5.9783 2.6766 5.9783 5.9783s-2.6765 5.9783-5.9783 5.9783z"></path><path d="m15.207 18.6492-8.30547 8.3056"></path></g></svg>