<svg xmlns="http://www.w3.org/2000/svg" fill="none" height="36" viewBox="0 0 35 36" width="35"><g stroke="#004f7b" stroke-linecap="round" stroke-linejoin="round" stroke-miterlimit="10"><path d="m11.5625 5v3.7889s.0883 4.8995 5.9099 4.8342h.2934"></path><path d="m4.54559 31s-.6102-6.5897 5.2261-6.1407m0 0c1.35111.1039 2.75791.0618 4.05261-.3758 1.7903-.6051 2.9993-2.0154 3.3701-3.8586.2293-1.14.0563-2.224.0234-3.3748-.0474-1.6556.2482-3.3137 1.3073-4.6366 1.2289-1.535 3.1186-2.518 5.2379-2.518 3.7037 0 6.7062 3.0024 6.7062 6.7062 0 4.507-.7317 9.2301-4.7171 12.0009-1.7197 1.1956-3.7898 1.8982-5.888 1.9334-2.2641.038-4.5205-.7013-6.36-2.0136-1.4656-1.0456-2.5712-2.5062-3.73241-3.8631z"></path><path d="m17.1953 20.6249s3.0117-2.8209 6.679.7394 6.1443.2707 6.1443.2707"></path></g><path d="m18.0562 27.505c-.3127.2966-.8065.2838-1.1034-.0287-.2968-.3125-.284-.8061.0287-1.1027.3126-.2966.8065-.2838 1.1034.0287.2968.3124.284.806-.0287 1.1027z" fill="#004f7b"></path><path d="m23.5487 27.5101c-.3572.3388-.9217.3246-1.2608-.0323-.339-.357-.3243-.9216.0328-1.2605.3567-.3384.9216-.3239 1.2607.0331.3391.3569.324.9212-.0327 1.2597z" fill="#004f7b"></path><path d="m21.078 24.2554c-.3798.3606-.9803.3447-1.3406-.0347-.3607-.3798-.3455-.9804.0344-1.341.3799-.3607.9803-.3447 1.3409.0352.3603.3793.3451.9798-.0347 1.3405z" fill="#004f7b"></path></svg>