<svg xmlns="http://www.w3.org/2000/svg" fill="none" height="36" viewBox="0 0 35 36" width="35"><g stroke="#004f7b" stroke-linecap="round" stroke-linejoin="round" stroke-miterlimit="10"><path d="m17.5 20.375c3.8315 0 6.9375-3.106 6.9375-6.9375 0-3.83148-3.106-6.9375-6.9375-6.9375s-6.9375 3.10602-6.9375 6.9375c0 3.8315 3.106 6.9375 6.9375 6.9375z"></path><path d="m23.2754 9.59375h3.4015c1.283 0 2.3231 1.04015 2.3231 2.32315v15.26c0 1.283-1.0401 2.3231-2.3231 2.3231h-18.3538c-1.283 0-2.3231-1.0401-2.3231-2.3231v-15.26c0-1.283 1.0401-2.32315 2.3231-2.32315h3.4015"></path><path d="m17.5 17.1563c.7508 0 1.3594-.6086 1.3594-1.3594s-.6086-1.3594-1.3594-1.3594-1.3594.6086-1.3594 1.3594.6086 1.3594 1.3594 1.3594z"></path><path d="m18.4259 14.7469 3.1655-3.296"></path></g></svg>