<svg xmlns="http://www.w3.org/2000/svg" fill="none" height="35" viewBox="0 0 35 35" width="35"><g stroke="#004f7b" stroke-linecap="round" stroke-linejoin="round" stroke-miterlimit="10"><path d="m21.7797 21.7836s-2.9242-3.3928.948-5.386c1.5221-.7835 3.4078.2645 4.3092 1.6916.7262 1.1498.7384 2.4125.2925 3.6479-.2049.5679-.0413 1.2034.3856 1.6302l3.2811 3.2812"></path><path d="m21.7796 21.7836s-3.3928-2.9242-5.386.948c-.7835 1.5221.2645 3.4078 1.6916 4.3092 1.1498.7262 2.4125.7384 3.6479.2925.5679-.2049 1.2034-.0413 1.6302.3856l3.2812 3.2811"></path><path d="m14.2149 14.2164s2.9242 3.3928-.948 5.386c-1.5221.7835-3.40777-.2645-4.30917-1.6916-.7262-1.1498-.7384-2.4125-.2925-3.6479.2049-.5679.0413-1.2034-.3856-1.6302l-3.2811-3.2812"></path><path d="m14.2134 14.2164s3.3928 2.9242 5.386-.948c.7835-1.5221-.2645-3.4078-1.6916-4.3092-1.1498-.7262-2.4125-.7384-3.6479-.2925-.5679.2049-1.2034.0413-1.6302-.3856l-3.2813-3.2811"></path></g></svg>